<svg xmlns="http://www.w3.org/2000/svg" fill="none" viewBox="0 0 142 42"><path fill="#2D383F" d="m15.73 27.24 3.77-3.88 4.29 3.89h7.34l-11.68-11.25-11.58 11.24z"/><path fill="#2D383F" d="m26.52 9.2-5.56 5.56 3.67 3.7 1.89-1.86 10.31 10.09a16.5 16.5 0 0 1-15.5 10.55c-9.13 0-16.53-7.26-16.53-16.24a16.45 16.45 0 0 1 16.58-16.23c8.1 0 14.89 5.78 16.25 13.32l5 5.18a20.7 20.7 0 0 0-6.12-17.11 21.4 21.4 0 0 0-15.13-6.16 21.4 21.4 0 0 0-15.11 6.15 20.6 20.6 0 0 0-6.27 14.85 20.6 20.6 0 0 0 6.26 14.85 21.4 21.4 0 0 0 15.12 6.15c5.7 0 11.07-2.17 15.12-6.15a20.5 20.5 0 0 0 5.28-8.56c.19-.55.33-1.16.47-1.71l-4.33-4.49zm33.9 4.3h3.14l-1.72 8.46h5.3l-.5 2.45h-8.45zm9.69 0h3.14l-2.22 10.91h-3.15zm8.03 2.38-.5 2.4h4.91l-.49 2.39h-4.89l-.76 3.74h-3.15l2.23-10.91h8.7l-.5 2.38zm10.14 0-.36 1.84h4.93l-.46 2.3h-4.95l-.4 2h5.83l-.5 2.4h-8.92l2.23-10.93h8.7l-.5 2.4zm9.92.06h-3.41l.5-2.44h9.97l-.51 2.44h-3.4l-1.73 8.47h-3.15zm11.85 8.69q-1.68 0-2.93-.6a4.6 4.6 0 0 1-1.93-1.7 4.7 4.7 0 0 1-.66-2.5q0-1.87.87-3.37a6 6 0 0 1 2.46-2.34 7.6 7.6 0 0 1 3.6-.84q1.69 0 2.93.6a4.5 4.5 0 0 1 2.6 4.2q0 1.87-.89 3.37a6 6 0 0 1-2.46 2.34 7.5 7.5 0 0 1-3.59.84m.27-2.56a3.3 3.3 0 0 0 3.07-1.89 4 4 0 0 0 .43-1.91 2.3 2.3 0 0 0-.7-1.76 2.6 2.6 0 0 0-1.92-.68q-1.05 0-1.85.52a3.4 3.4 0 0 0-1.22 1.39 4 4 0 0 0-.43 1.9q0 1.1.68 1.78.7.65 1.94.65m12.58 2.56q-1.45 0-2.5-.47a3.6 3.6 0 0 1-1.6-1.37 4 4 0 0 1-.56-2.09q0-.5.13-1.15l1.24-6.06h3.14l-1.22 6a4 4 0 0 0-.1.87q0 1.71 1.85 1.71 1 0 1.57-.59.6-.6.87-1.98l1.23-6h3.1l-1.26 6.19q-1.02 4.95-5.9 4.94Zm18.52-7.66q0 1.5-.81 2.6a4.6 4.6 0 0 1-2.28 1.57l1.9 3.27h-3.3l-1.64-2.9h-1.6l-.58 2.9h-3.14l2.22-10.92h4.75q2.13 0 3.3.92a3 3 0 0 1 1.18 2.56m-3.18.3q0-.67-.46-1a2 2 0 0 0-1.29-.34h-1.65l-.67 3.2h1.88q1.05 0 1.62-.49.57-.48.57-1.37m-77.96 17.44a2 2 0 0 1-1.04-.25 2 2 0 0 1-.73-.7 2 2 0 0 1-.26-.98q0-.55.26-1 .27-.44.73-.68.47-.26 1.04-.26t1.03.25a1.9 1.9 0 0 1 1 1.69q0 .55-.27.99-.26.44-.73.69-.45.24-1.03.25m0-.36q.45 0 .83-.2a1.5 1.5 0 0 0 .79-1.37q0-.45-.21-.8a1.5 1.5 0 0 0-.58-.57 2 2 0 0 0-.83-.2q-.45 0-.83.2a1.5 1.5 0 0 0-.59.56q-.2.36-.2.8t.2.81a1.6 1.6 0 0 0 1.42.77m4.4-2.55q.42 0 .75.18.34.19.52.51a1.5 1.5 0 0 1 .18.76q0 .42-.18.76a1.3 1.3 0 0 1-.52.51 1.5 1.5 0 0 1-.74.18q-.36 0-.64-.14a1 1 0 0 1-.47-.42v1.59h-.39v-3.91h.38v.56q.17-.28.46-.43t.66-.15m-.02 2.56q.3 0 .55-.14a1 1 0 0 0 .39-.4q.14-.25.14-.57 0-.33-.14-.58a1 1 0 0 0-.39-.4 1 1 0 0 0-.55-.14q-.31 0-.56.14-.24.15-.39.4a1 1 0 0 0-.13.58q0 .31.13.58.15.25.4.4.24.13.55.13m4.37-2.2h-1.66v2.51h-.4v-2.85h2.06zm1.57-.36q.57 0 .87.28.3.27.3.82v1.77h-.37v-.44a1 1 0 0 1-.4.35q-.24.12-.6.12a1.2 1.2 0 0 1-.77-.23.7.7 0 0 1-.29-.6q0-.36.27-.59t.85-.22h.92v-.17q0-.37-.2-.56-.22-.2-.62-.2a1.5 1.5 0 0 0-.97.34l-.17-.29a2 2 0 0 1 .53-.28 2 2 0 0 1 .65-.1m-.14 2.6q.33 0 .57-.15a1 1 0 0 0 .35-.43v-.47h-.9q-.75 0-.75.51a.5.5 0 0 0 .19.4q.2.14.54.14m2.36-2.58h.4v1.26h1.82v-1.26h.4v2.85h-.4v-1.26h-1.83v1.26h-.39zm3.73 0h.39v2.27l1.94-2.27h.35v2.85h-.4v-2.26l-1.93 2.26h-.35zm5.16 1.37a1 1 0 0 1 .47.24.6.6 0 0 1 .17.42.6.6 0 0 1-.17.45 1 1 0 0 1-.48.3 2 2 0 0 1-.65.1q-.32 0-.62-.08a2 2 0 0 1-.53-.27l.13-.28q.2.15.47.22.26.09.53.09.4 0 .66-.15.26-.16.26-.4a.4.4 0 0 0-.21-.36 1 1 0 0 0-.58-.13h-.5v-.28h.48q.33 0 .53-.12.2-.13.2-.33 0-.23-.23-.36a1 1 0 0 0-.58-.13q-.47 0-.93.23l-.1-.3a2.3 2.3 0 0 1 1.07-.26q.33 0 .6.1t.42.26q.15.18.15.4a.6.6 0 0 1-.16.39 1 1 0 0 1-.4.25m2.53-1.4q.57 0 .88.3.3.26.3.81v1.77h-.38v-.44a1 1 0 0 1-.39.35q-.25.12-.6.12a1.2 1.2 0 0 1-.78-.23.7.7 0 0 1-.29-.6q0-.36.27-.59t.85-.22h.93v-.17q0-.37-.21-.56t-.62-.2a1.5 1.5 0 0 0-.96.34l-.18-.29a2 2 0 0 1 .53-.28 2 2 0 0 1 .65-.1Zm-.14 2.6q.34 0 .57-.14a1 1 0 0 0 .36-.43v-.47h-.92q-.75 0-.74.51a.5.5 0 0 0 .2.4q.18.14.53.14m5.39-.05v1.05h-.37v-.72h-2.66v-2.85h.4v2.52h1.77v-2.52h.39v2.52zm.75-2.52h.4v2.27l1.93-2.27h.35v2.85h-.4v-2.26l-1.93 2.26h-.35zm6.03 0v2.85h-.36v-.94h-1.02l-.67.94h-.43l.73-1a1 1 0 0 1-.52-.3 1 1 0 0 1-.18-.57q0-.48.33-.73t.9-.25zm-2.06.99q0 .63.83.63h.87v-1.28h-.85q-.84 0-.85.65m7.24-.99v2.85h-.4v-2.5h-1.82v2.5h-.4v-2.85zm2.3 2.88q-.4 0-.75-.18a1.4 1.4 0 0 1-.53-.52 1.5 1.5 0 0 1-.2-.75q0-.42.2-.75.19-.33.53-.52.34-.18.76-.18c.42 0 .53.06.76.18q.34.2.52.52.2.33.2.75 0 .4-.2.75-.18.33-.52.52a2 2 0 0 1-.76.18Zm0-.34q.33 0 .56-.14a1 1 0 0 0 .39-.4 1 1 0 0 0 .14-.57 1 1 0 0 0-.14-.58 1 1 0 0 0-.39-.4 1 1 0 0 0-.55-.13q-.31 0-.56.14a1 1 0 0 0-.39.39 1 1 0 0 0-.13.58q0 .31.13.58.15.25.4.4.24.13.55.13m4.04.31-.93-1.19-.92 1.2h-.44l1.14-1.47-1.09-1.39h.44l.88 1.12.87-1.12h.43l-1.1 1.39 1.16 1.46zm2.18.03q-.42 0-.75-.18a1.4 1.4 0 0 1-.53-.52 1.5 1.5 0 0 1-.2-.75q0-.42.2-.75.18-.33.53-.52.33-.18.75-.18t.76.18q.34.2.53.52.19.33.19.75 0 .4-.2.75-.19.33-.52.52a2 2 0 0 1-.76.18m0-.34q.32 0 .56-.14a1 1 0 0 0 .38-.4 1 1 0 0 0 .14-.57 1 1 0 0 0-.14-.58 1 1 0 0 0-.38-.4 1 1 0 0 0-.56-.13q-.3 0-.55.14a1 1 0 0 0-.4.39 1 1 0 0 0-.13.58q0 .31.14.58.14.25.39.4.24.13.55.13m5.13-.02v1.02h-.37v-.69h-2.6v.7h-.37v-1.03h.17q.3-.02.4-.43c.1-.4.11-.65.14-1.13l.04-.96h2.14v2.52zm-2.27-1.54q-.03.6-.1 1-.09.39-.28.54h1.8v-2.18h-1.39zm4.24 1.9q-.42 0-.76-.18a1.4 1.4 0 0 1-.53-.52 1.5 1.5 0 0 1-.2-.75q0-.42.2-.75.19-.33.53-.52.33-.18.76-.18.42 0 .75.18.34.2.53.52.2.33.2.75 0 .4-.2.75-.19.33-.53.52a2 2 0 0 1-.75.18m0-.34q.3 0 .55-.14a1 1 0 0 0 .39-.4q.13-.25.13-.57 0-.33-.13-.58a1 1 0 0 0-.39-.4 1 1 0 0 0-.55-.13q-.31 0-.56.14a1 1 0 0 0-.39.39 1 1 0 0 0-.14.58q0 .31.14.58.15.25.39.4.24.13.56.13m4.16-1.16q.6.13.6.7 0 .38-.29.57-.28.2-.84.2h-1.32v-2.85h1.28q.5 0 .78.19a.6.6 0 0 1 .28.54q0 .24-.13.4a1 1 0 0 1-.36.25m-1.47-.11h.87q.34 0 .52-.12a.4.4 0 0 0 .18-.37.4.4 0 0 0-.18-.36 1 1 0 0 0-.51-.12h-.88zm.92 1.28q.38 0 .57-.12t.19-.37c0-.25-.06-.3-.18-.38q-.17-.12-.54-.12h-.96v.99zm5.36-1.17q.6.13.59.7 0 .38-.28.57-.3.2-.84.2h-1.32v-2.85h1.28q.5 0 .78.19a.6.6 0 0 1 .28.54.6.6 0 0 1-.13.4 1 1 0 0 1-.36.25m-1.47-.11h.87q.34 0 .52-.12a.4.4 0 0 0 .18-.37.4.4 0 0 0-.19-.36 1 1 0 0 0-.5-.12h-.88zm.92 1.28q.38 0 .56-.12.2-.12.2-.37c0-.25-.06-.3-.18-.38q-.17-.12-.54-.12h-.96v.99zm5.56-2.2h-1.66v2.5h-.4v-2.85h2.06zm1.63 2.53q-.42 0-.76-.18a1.4 1.4 0 0 1-.53-.52 1.5 1.5 0 0 1-.2-.75q0-.42.2-.75.19-.33.53-.52.34-.18.76-.18c.42 0 .53.06.76.18q.34.2.52.52.2.33.2.75 0 .4-.2.75-.19.33-.52.52a2 2 0 0 1-.76.18m0-.34q.3 0 .55-.14a1 1 0 0 0 .39-.4 1 1 0 0 0 .14-.57 1 1 0 0 0-.14-.58 1 1 0 0 0-.39-.4 1 1 0 0 0-.55-.13q-.31 0-.56.14a1 1 0 0 0-.38.39 1 1 0 0 0-.14.58q0 .31.14.58.14.25.38.4.25.13.56.13m3.81-2.56q.4 0 .74.18.34.19.52.51.19.34.19.76t-.2.76q-.18.33-.51.51a1.5 1.5 0 0 1-.74.18q-.36 0-.64-.14a1 1 0 0 1-.46-.42v1.59h-.4v-3.91h.38v.56a1 1 0 0 1 .46-.43q.3-.15.66-.15m-.03 2.56q.3 0 .55-.14a1 1 0 0 0 .4-.4 1 1 0 0 0 .14-.57 1 1 0 0 0-.15-.58 1 1 0 0 0-.39-.4 1 1 0 0 0-.55-.14q-.3 0-.56.14a1 1 0 0 0-.38.4 1 1 0 0 0-.14.58q0 .31.14.58.15.25.38.4.26.13.56.13m3.54-1.53q.55 0 .83.24.3.23.3.67t-.32.7q-.3.24-.88.24h-1.15v-2.86h.4v1zm1.6-1.01h.4v2.85h-.4zm-1.7 2.57q.42 0 .61-.16.21-.17.21-.49t-.2-.47-.61-.15l-.74-.01v1.27z"/></svg>