<svg xmlns="http://www.w3.org/2000/svg" xmlns:xlink="http://www.w3.org/1999/xlink"><symbol id="sprite-advantages-icon-environment" fill="none" viewBox="0 0 24 24"><path stroke="#0266C1" stroke-linecap="round" stroke-linejoin="round" d="M11.66 17.72a10.6 10.6 0 0 0-5.9-7.14 11 11 0 0 0-4.67-1.04c.1 2.21.91 4.36 2.37 6.13a11 11 0 0 0 8.47 3.97q-.04-.96-.27-1.92m0 0c-.6-2.56-2.18-4.8-4.38-6.28l.13-.66a10.5 10.5 0 0 1 4.59-6.42 10.5 10.5 0 0 1 4.59 6.42l.13.66a10.5 10.5 0 0 0-4.38 6.28m-.68 0q.23.96.27 1.92h.13a11 11 0 0 0 2.71-.33l.02-.02q-1.33.33-2.72.35m.27-1.92a10.6 10.6 0 0 1 5.9-7.14 11 11 0 0 1 4.67-1.04 10.3 10.3 0 0 1-2.37 6.13 11 11 0 0 1-8.47 3.97m.27-1.92q-.23.96-.27 1.92"/></symbol><use xlink:href="#sprite-advantages-icon-environment" width="24" height="24"/><view id="sprite-advantages-icon-environment-view" viewBox="0 0 24 24"/><symbol id="sprite-advantages-icon-equipment" fill="none" viewBox="0 0 24 24"><path fill="#0266C1" d="M22.6 15.54c.68-2.29.12-4.88-.47-6.68a.4.4 0 0 0-.06-.2 16 16 0 0 0-.55-1.4.8.8 0 0 0 .49-.77v-3.47c0-.46-.35-.84-.78-.84h-9.51c-.22 0-.4.19-.4.42v.02c.14 2.5-.03 4.2-.52 5.4l-.03.04v.06a4 4 0 0 1-.75 1.18l-.03.03v.02a6 6 0 0 1-1.55 1.13q-1.5.71-3.06 1.23l-.2.07c-3.62 1.29-4.1 3.63-4.09 4.8v3.04q0 .23.19.35a11 11 0 0 0 2.84 1.33c.21.06.42-.07.48-.3l.02-.12v-.1h.57v.42a.4.4 0 0 0 .32.42q.5.09 1 .13.17.01.3-.1a.4.4 0 0 0 .12-.32v-.52h.57v.6c0 .22.18.4.39.4q.48.01 1-.04c.2-.02.36-.2.36-.42v-.54h.57v.37c0 .23.16.42.38.42h.06a12 12 0 0 0 2.1-.55l.06-.03c2.71-1.66 4.43-.29 4.5-.23a.4.4 0 0 0 .24.09h.48c.21 0 .39-.2.39-.42v-.7h.55v.69c0 .23.17.42.39.42h1.25c.21 0 .38-.19.38-.42v-.7h.58v.7c0 .23.17.42.38.42h.96c.22 0 .39-.19.39-.42v-4.5a.4.4 0 0 0-.31-.41m-9.2-12.52h7.82v3.46h-7.81zm-4.86 8.32v.02a7 7 0 0 1 .88.93 1 1 0 0 0-.1.41c-.01.44.32.8.73.8s.74-.35.74-.79c0-.41-.29-.76-.67-.8a6 6 0 0 0-.84-.98 6 6 0 0 0 .98-.75q.56.57 1.04 1.23c-.13.41.07.87.46 1.01s.8-.07.94-.49-.07-.87-.45-1.01l-.25-.05h-.1q-.5-.69-1.1-1.3.27-.36.48-.78.9.5 1.74 1.13c0 .44.33.8.74.8.41.01.75-.34.75-.79s-.32-.8-.74-.81a1 1 0 0 0-.34.08 17 17 0 0 0-1.82-1.16c.42-1.2.6-2.81.52-5h.5v3.45c0 .46.35.84.78.84h7.26q.16.34.46 1.1h-.16c-2.36.02-4.25 2.09-4.23 4.62 0 1.44.64 2.8 1.72 3.65-3.14.89-7.85 1.94-11.82 1.67.73-3.15-.14-5.09-.71-5.94a25 25 0 0 0 2.6-1.1m-3.38 1.34c.42.53 1.51 2.3.71 5.58a9 9 0 0 1-3.97-1.29l-.03-.29v-.03c-.03-.89.28-2.8 3.3-3.97m16.8 7.36v-.7a.4.4 0 0 0-.4-.41h-1.34c-.21 0-.39.19-.39.42v.7h-.47v-.7a.4.4 0 0 0-.4-.42h-1.33c-.21 0-.39.19-.39.42v.68c-.52-.36-2.45-1.39-5.18.25q-.73.26-1.48.42v-.29a.4.4 0 0 0-.39-.41h-1.34c-.2 0-.38.18-.38.41v.58h-.2v-.59c0-.23-.17-.42-.39-.42h-1.34c-.22 0-.39.2-.39.42v.5l-.2-.03v-.47c0-.23-.17-.42-.38-.42h-1.35a.4.4 0 0 0-.39.37 10 10 0 0 1-1.97-.95v-1.5c1.69.97 3.87 1.33 6.2 1.33 6.17 0 13.24-2.54 14.07-2.85v3.66zm-.2-4.4c-.33.12-1.14.42-2.26.74a3.9 3.9 0 0 1-1.62-5.01 3.5 3.5 0 0 1 3.09-2.12q.23 0 .46.03c.57 1.78 1.08 4.3.33 6.36"/><path fill="#0266C1" d="M14.9 3.53c-.63 0-1.13.54-1.13 1.21s.5 1.21 1.13 1.21 1.12-.54 1.12-1.2-.5-1.22-1.12-1.22m0 1.6c-.2 0-.36-.18-.36-.39s.16-.38.36-.38.35.17.35.38-.16.38-.35.38"/></symbol><use xlink:href="#sprite-advantages-icon-equipment" width="24" height="24" y="24"/><view id="sprite-advantages-icon-equipment-view" viewBox="0 24 24 24"/><symbol id="sprite-advantages-icon-expertise" fill="none" viewBox="0 0 24 24"><path stroke="#0266C1" d="M19.3 21.82h-14.6m18.21-14.06-3.2 10.57h-15.43l-3.19-10.57 6.3 3.82 4.61-9.4 4.61 9.4z"/></symbol><use xlink:href="#sprite-advantages-icon-expertise" width="24" height="24" y="48"/><view id="sprite-advantages-icon-expertise-view" viewBox="0 48 24 24"/><symbol id="sprite-advantages-icon-routes" fill="none" viewBox="0 0 24 24"><g clip-path="url(#a)"><path stroke="#0266C1" stroke-linecap="round" d="M19.8 9.56h-5.85a3.3 3.3 0 0 0-3.31 3.34 3.3 3.3 0 0 0 3.3 3.34h2.54c1.83 0 3.31 1.49 3.31 3.33s-1.48 3.34-3.31 3.34h-12.27m3.12-5.53c0-1.74-1.4-3.14-3.12-3.14s-3.12 1.4-3.12 3.14v.12c0 .68.22 1.36.62 1.91l2.5 3.46q0 0 0 0l2.5-3.46a3.3 3.3 0 0 0 .61-1.91zm-2.52-1.3.02.01c.38.18.65.53.75.94a1.4 1.4 0 0 1-1.36 1.7h-.03a1.4 1.4 0 0 1-1.35-1.7c.1-.41.37-.76.75-.94h.02a1.4 1.4 0 0 1 1.2 0Zm18.1-11.83c0-1.73-1.4-3.16-3.12-3.16s-3.11 1.43-3.11 3.16c0 .69.21 1.36.62 1.9l2.49 3.37q0 0 0 0l2.5-3.37a3.2 3.2 0 0 0 .62-1.9Zm-2.52-1.36.04.02a1.34 1.34 0 0 1 .46 2.06l-.01.01a1.4 1.4 0 0 1-1.05.5h-.07c-.4 0-.8-.18-1.05-.5l-.02-.01a1.34 1.34 0 0 1 .47-2.06l.04-.02a1.4 1.4 0 0 1 1.19 0Z"/></g><defs><clipPath id="a"><path fill="#fff" d="M0 0h24v24h-24z"/></clipPath></defs></symbol><use xlink:href="#sprite-advantages-icon-routes" width="24" height="24" y="72"/><view id="sprite-advantages-icon-routes-view" viewBox="0 72 24 24"/><symbol id="sprite-advantages-icon-safety" fill="none" viewBox="0 0 24 24"><path stroke="#0266C1" d="m9.55 11.9 2.45 2.45 4.3-4.28m-4.3-8.98a18 18 0 0 1-9.4 1.95 18 18 0 0 0-.14 6.97 18 18 0 0 0 6.17 10.67 18 18 0 0 0 3.37 2.23 18 18 0 0 0 3.37-2.23 18 18 0 0 0 6.17-10.67c.42-2.33.36-4.7-.14-6.97a18 18 0 0 1-9.4-1.95Z"/></symbol><use xlink:href="#sprite-advantages-icon-safety" width="24" height="24" y="96"/><view id="sprite-advantages-icon-safety-view" viewBox="0 96 24 24"/><symbol id="sprite-arrow-button-next" fill="none" viewBox="0 0 9 14"><path stroke="currentColor" stroke-width="2" d="m1 13 6-6-6-6"/></symbol><use xlink:href="#sprite-arrow-button-next" width="9" height="14" y="120"/><view id="sprite-arrow-button-next-view" viewBox="0 120 9 14"/><symbol id="sprite-arrow-prev" fill="none" viewBox="0 0 14 9"><path fill="currentColor" d="M.65 4.85a.5.5 0 0 1 0-.7l3.18-3.19a.5.5 0 1 1 .7.71l-2.82 2.83 2.83 2.83a.5.5 0 1 1-.71.7zm13.35.15h-13v-1h13z"/></symbol><use xlink:href="#sprite-arrow-prev" width="14" height="9" y="134"/><view id="sprite-arrow-prev-view" viewBox="0 134 14 9"/><symbol id="sprite-boots-icon" fill="none" viewBox="0 0 25 25"><path fill="#2D383F" d="M24.64 16.27c.78-2.44.14-5.2-.54-7.11a.4.4 0 0 0-.06-.2 17 17 0 0 0-.63-1.5.9.9 0 0 0 .56-.83v-3.7a.9.9 0 0 0-.89-.88h-10.9a.44.44 0 0 0-.45.47c.15 2.66-.04 4.47-.6 5.74l-.04.04v.07a5 5 0 0 1-.86 1.26l-.04.02v.03q-.79.75-1.77 1.2a31 31 0 0 1-3.51 1.3l-.23.08c-4.15 1.38-4.69 3.87-4.68 5.13v3.22q0 .24.21.38a13 13 0 0 0 3.27 1.4.44.44 0 0 0 .56-.44v-.1h.65v.44a.44.44 0 0 0 .37.45q.59.09 1.15.14a.44.44 0 0 0 .48-.44v-.56h.66v.63c0 .24.2.44.44.44q.55.01 1.15-.05a.44.44 0 0 0 .4-.45v-.57h.66v.39a.44.44 0 0 0 .51.44 15 15 0 0 0 2.4-.57l.07-.03c3.11-1.78 5.08-.32 5.16-.25q.12.09.27.09h.55a.44.44 0 0 0 .45-.45v-.75h.63v.74c0 .25.2.45.44.45h1.43a.44.44 0 0 0 .45-.44v-.75h.65v.74c0 .25.2.45.45.45h1.1a.44.44 0 0 0 .44-.44v-4.79a.44.44 0 0 0-.36-.44m-10.53-13.32h8.95v3.67h-8.95zm-5.58 8.85v.02q.55.45 1 .98a1 1 0 0 0-.11.45.85.85 0 1 0 .92-.84q-.42-.58-.95-1.05a7 7 0 0 0 1.11-.8q.65.61 1.2 1.3a.85.85 0 1 0 .8-.56h-.11q-.59-.74-1.27-1.38.32-.4.56-.83 1.03.53 1.99 1.2a.86.86 0 1 0 .47-.77 20 20 0 0 0-2.09-1.23c.49-1.29.7-3 .6-5.33h.58v3.68c0 .49.4.89.89.89h8.31q.19.36.53 1.17h-.18a4.88 4.88 0 0 0-2.88 8.8c-3.6.95-9 2.07-13.54 1.78.84-3.35-.16-5.41-.81-6.32a30 30 0 0 0 2.98-1.16m-3.88 1.41c.48.57 1.73 2.46.82 5.95a11 11 0 0 1-4.56-1.38l-.03-.3v-.04c-.04-.94.32-2.99 3.77-4.23m19.25 7.84v-.74a.44.44 0 0 0-.44-.44h-1.54a.44.44 0 0 0-.45.44v.74h-.54v-.74a.44.44 0 0 0-.44-.44h-1.54a.44.44 0 0 0-.44.44v.72c-.6-.37-2.81-1.47-5.94.28a14 14 0 0 1-1.7.44v-.3a.44.44 0 0 0-.44-.45h-1.53a.44.44 0 0 0-.45.45v.6h-.22v-.62a.44.44 0 0 0-.45-.44h-1.54a.44.44 0 0 0-.44.44v.53l-.23-.03v-.5a.44.44 0 0 0-.44-.44h-1.54a.44.44 0 0 0-.45.39q-1.18-.39-2.26-1.02v-1.59c1.93 1.03 4.44 1.42 7.1 1.42 7.08 0 15.17-2.71 16.13-3.04v3.9zm-.21-4.68c-.38.12-1.31.44-2.6.78a4 4 0 0 1 2.2-7.56l.01.01c.66 1.89 1.24 4.57.38 6.77"/><path fill="#2D383F" d="M15.82 3.48a1.3 1.3 0 1 0 0 2.59 1.3 1.3 0 0 0 0-2.59m0 1.7a.4.4 0 1 1 0-.8.4.4 0 0 1 0 .8"/></symbol><use xlink:href="#sprite-boots-icon" width="25" height="25" y="143"/><view id="sprite-boots-icon-view" viewBox="0 143 25 25"/><symbol id="sprite-difficulty-level-icon" fill="none" viewBox="0 0 12 12"><path stroke="#fff" stroke-linecap="round" stroke-miterlimit="16" d="M10.9 11.46h-1.95v-10.92h1.96zm-3.92 0v-7.94h-1.96v7.93zm-3.93 0v-4.97h-1.96v4.97z"/></symbol><use xlink:href="#sprite-difficulty-level-icon" width="12" height="12" y="168"/><view id="sprite-difficulty-level-icon-view" viewBox="0 168 12 12"/><symbol id="sprite-email-icon" fill="none" viewBox="0 0 22 22"><path stroke="#2D383F" stroke-linecap="round" stroke-linejoin="round" d="M21 5.56v10.88c0 .86-.64 1.56-1.43 1.56h-17.14c-.8 0-1.43-.7-1.43-1.56v-10.88m20 0c0-.86-.64-1.56-1.43-1.56h-17.14c-.8 0-1.43.7-1.43 1.56m20 0-8.14 7.6c-1.07 1-2.65 1-3.72 0l-8.14-7.6"/></symbol><use xlink:href="#sprite-email-icon" width="22" height="22" y="180"/><view id="sprite-email-icon-view" viewBox="0 180 22 22"/><symbol id="sprite-map-icon-empty" fill="none" viewBox="0 0 42 42"><path fill="#0266C1" fill-rule="evenodd" d="M21 1.91c7.9 0 14.32 6.1 14.32 13.64v.83c0 3.01-1 5.95-2.83 8.4l-11.46 15.3a.04.04 0 0 1-.06 0l-11.46-15.3a14 14 0 0 1-2.83-8.4v-.82c0-7.54 6.41-13.65 14.32-13.65m-2.54 9.1c-1.61.73-2.78 2.11-3.18 3.76s.02 3.37 1.14 4.7a6 6 0 0 0 4.58 2.08 6 6 0 0 0 4.58-2.09c1.12-1.32 1.53-3.05 1.14-4.7s-1.57-3.02-3.18-3.76a6.2 6.2 0 0 0-5.08 0" clip-rule="evenodd"/></symbol><use xlink:href="#sprite-map-icon-empty" width="42" height="42" y="202"/><view id="sprite-map-icon-empty-view" viewBox="0 202 42 42"/><symbol id="sprite-map-icon" fill="none" viewBox="0 0 25 25"><path fill="#2D383F" d="M24.17 22.28v-15.58a.46.46 0 0 0-.6-.46v.02l-2.09.65a6 6 0 0 0 .39-1.82 5.1 5.1 0 0 0-10.19 0 6 6 0 0 0 .36 1.74l-3.45-1.23h-.16l-.16.03-7.14 2.78a.5.5 0 0 0-.3.39v15.6a.46.46 0 0 0 .63.43l6.98-2.7 7.97 2.85q.15.05.3 0l7.14-2.24a.5.5 0 0 0 .32-.46m-7.4-21.35a4.17 4.17 0 0 1 4.17 4.16c0 1.81-2.72 6.82-4.17 9.27-1.45-2.47-4.16-7.48-4.16-9.27a4.17 4.17 0 0 1 4.16-4.16m6.49 21.03-6.24 1.95v-3.53a.46.46 0 0 0-.92 0v3.5l-7.2-2.58v-2.96a.46.46 0 0 0-.93 0v2.96l-6.22 2.43v-7.16l2.3-.93a.46.46 0 1 0-.35-.86l-1.95.79v-6.45l6.22-2.4v1.38a.46.46 0 0 0 .93 0v-1.4l3.55 1.27a64 64 0 0 0 3.92 7.55.46.46 0 0 0 .8 0 65 65 0 0 0 3.9-7.5l2.17-.69.02 7.6-2.35.56a.47.47 0 0 0 .1.93h.12l2.13-.52z"/><path fill="#2D383F" d="M16.76 2.4a2.69 2.69 0 1 0 0 5.39 2.69 2.69 0 0 0 0-5.39m0 4.46a1.77 1.77 0 0 1-1.75-1.77h-.02a1.76 1.76 0 1 1 1.77 1.77m-6.06 7.1v.02l-2.24-.97a.5.5 0 0 0-.36 0l-1.9.77a.46.46 0 0 0 .35.86l1.72-.7 2.06.88.18.04a.46.46 0 0 0 .19-.9m7.57 2.66a.46.46 0 0 0-.52-.32v-.04l-1.15.28-1.94-.85a.47.47 0 0 0-.37.86l2.08.92.19.04h.1l1.3-.32a.46.46 0 0 0 .3-.57"/></symbol><use xlink:href="#sprite-map-icon" width="25" height="25" y="244"/><view id="sprite-map-icon-view" viewBox="0 244 25 25"/><symbol id="sprite-menu-icon-close" fill="none" viewBox="0 0 26 26"><path stroke="currentColor" stroke-width="2" d="m2.36 2.36 10.64 10.64m10.64 10.64-10.64-10.64m0 0 10.64-10.64-21.28 21.28"/></symbol><use xlink:href="#sprite-menu-icon-close" width="26" height="26" y="269"/><view id="sprite-menu-icon-close-view" viewBox="0 269 26 26"/><symbol id="sprite-menu-icon-open" fill="none" viewBox="0 0 26 26"><path fill="currentColor" d="M0 3.55h26v2.17h-26zm0 16.74h26v2.16h-26zm0-8.38h16.64v2.17h-16.64z"/></symbol><use xlink:href="#sprite-menu-icon-open" width="26" height="26" y="295"/><view id="sprite-menu-icon-open-view" viewBox="0 295 26 26"/><symbol id="sprite-moon-icon" fill="none" viewBox="0 0 20 20"><path fill="#fff" d="M17.62 11.1a.6.6 0 0 0-.47.1 6 6 0 0 1-1.82 1.08 6 6 0 0 1-2.06.37 6 6 0 0 1-4.26-1.77 6 6 0 0 1-1.75-4.27q.01-1.05.32-1.99a6 6 0 0 1 .98-1.76.53.53 0 0 0-.08-.74.6.6 0 0 0-.47-.1 8.3 8.3 0 0 0-4.33 2.9 8 8 0 0 0-1.68 4.95c0 2.24.9 4.27 2.37 5.75a8 8 0 0 0 5.73 2.38 8 8 0 0 0 5-1.74 8 8 0 0 0 2.87-4.5c.1-.3-.06-.6-.35-.65m-3.13 4.28a7 7 0 0 1-4.35 1.52 7 7 0 0 1-4.97-2.07 7 7 0 0 1-2.07-4.99c0-1.62.54-3.1 1.46-4.28a7 7 0 0 1 2.35-1.97 7 7 0 0 0-.29.7 7 7 0 0 0-.39 2.33 7 7 0 0 0 2.07 5 7 7 0 0 0 4.99 2.08q1.29 0 2.43-.43.4-.14.78-.33a7.5 7.5 0 0 1-2 2.44"/></symbol><use xlink:href="#sprite-moon-icon" width="20" height="20" y="321"/><view id="sprite-moon-icon-view" viewBox="0 321 20 20"/><symbol id="sprite-mountain-icon" fill="none" viewBox="0 0 25 25"><path fill="#2D383F" d="m23.42 24.19-4.05-9.4-3.81-8.88a.48.48 0 0 0-.88 0l-3.4 7.9-1.34 3.1-2.93-6.75a.48.48 0 0 0-.88 0l-2.75 6.36-3.34 7.66a.48.48 0 0 0 .44.67h22.5a.48.48 0 0 0 .43-.66m-8.3-16.9 3.1 7.2h-1.09l-1.96-2.17a.48.48 0 0 0-.76.07l-.73 1.13h-1.23zm-8.54 4.24 2.45 5.66h-1.34a.5.5 0 0 0-.4.22l-.48.76-1.23-1.74a.5.5 0 0 0-.39-.2h-.63zm-5.34 12.37 2.9-6.72h.8l1.5 2.12a.5.5 0 0 0 .38.2.5.5 0 0 0 .4-.21l.73-1.14h1.49l2.48 5.73zm11.73 0-2.5-5.77 1.57-3.65h1.9a.5.5 0 0 0 .4-.23l.54-.81 1.68 1.87q.15.15.36.15h1.7l3.64 8.45zm-5.35-21.82a2.25 2.25 0 0 0-4.35.8v.26a2.25 2.25 0 0 0 .9 4.29l.03.02h3.34a2.68 2.68 0 1 0 .08-5.37m-.05 4.43h-3.34a1.3 1.3 0 1 1-.27-2.59.5.5 0 0 0 .36-.62 1.3 1.3 0 1 1 2.5-.64c.05.25.28.42.54.39h.21a1.73 1.73 0 0 1 0 3.46m16.14-3.87v-.25a2.25 2.25 0 0 0-4.35-.82 2.68 2.68 0 0 0 .1 5.36h3.34a2.25 2.25 0 0 0 .9-4.3m.37 2.32a1.3 1.3 0 0 1-1.25 1.02h-3.34a1.73 1.73 0 0 1 0-3.46h.21a.5.5 0 0 0 .52-.37 1.3 1.3 0 1 1 2.5.65.5.5 0 0 0 .36.62c.7.15 1.15.84 1 1.54"/></symbol><use xlink:href="#sprite-mountain-icon" width="25" height="25" y="341"/><view id="sprite-mountain-icon-view" viewBox="0 341 25 25"/><symbol id="sprite-phone-icon" fill="none" viewBox="0 0 22 22"><path stroke="#2D383F" stroke-linecap="round" stroke-linejoin="round" d="M19.32 20.04a1.7 1.7 0 0 1-1.68.95 18.8 18.8 0 0 1-11.24-5.41 19 19 0 0 1-5.4-11.29 1.7 1.7 0 0 1 .95-1.68l2.75-1.41c1.07-.55 2.36.09 2.73 1.23a19 19 0 0 0 1.3 3.02c.4.76.13 1.74-.66 2.1a1.8 1.8 0 0 0-.52 2.9l3.95 3.98a1.8 1.8 0 0 0 2.9-.53 1.6 1.6 0 0 1 2.21-.72 19 19 0 0 0 2.93 1.2c1.16.36 1.81 1.67 1.26 2.75z"/></symbol><use xlink:href="#sprite-phone-icon" width="22" height="22" y="366"/><view id="sprite-phone-icon-view" viewBox="0 366 22 22"/><symbol id="sprite-pin-icon-filled" fill="none" viewBox="0 0 28 28"><path fill="#0266C1" d="M23.55 10.37c0-5.03-4.28-9.1-9.55-9.1s-9.55 4.07-9.55 9.1v.55c0 2 .66 3.97 1.89 5.6l7.64 10.2a.02.02 0 0 0 .04 0l7.64-10.2a9.3 9.3 0 0 0 1.89-5.6z"/><path fill="#fff" d="M12.3 7.34a4.1 4.1 0 0 1 3.4 0 3.8 3.8 0 0 1 2.11 2.5 3.6 3.6 0 0 1-.75 3.14c-.75.88-1.87 1.39-3.06 1.39s-2.31-.52-3.06-1.4a3.6 3.6 0 0 1-.75-3.13 3.8 3.8 0 0 1 2.11-2.5"/></symbol><use xlink:href="#sprite-pin-icon-filled" width="28" height="28" y="388"/><view id="sprite-pin-icon-filled-view" viewBox="0 388 28 28"/><symbol id="sprite-pin-icon-not-filled" fill="none" viewBox="0 0 22 22"><path stroke="#2D383F" stroke-linecap="round" stroke-linejoin="round" d="M18.5 8.15c0-3.95-3.36-7.15-7.5-7.15s-7.5 3.2-7.5 7.15v.43c0 1.58.52 3.12 1.48 4.4l6 8.01h.03l6-8a7.3 7.3 0 0 0 1.49-4.41z"/><path stroke="#2D383F" stroke-linecap="round" stroke-linejoin="round" d="M9.53 5.29a3.5 3.5 0 0 1 2.94 0c.92.42 1.6 1.23 1.82 2.18a3.1 3.1 0 0 1-.65 2.73 3.4 3.4 0 0 1-2.64 1.21c-1.03 0-2-.45-2.64-1.21a3.1 3.1 0 0 1-.65-2.73c.23-.95.9-1.76 1.82-2.18"/></symbol><use xlink:href="#sprite-pin-icon-not-filled" width="22" height="22" y="416"/><view id="sprite-pin-icon-not-filled-view" viewBox="0 416 22 22"/><symbol id="sprite-pin-icon" fill="none" viewBox="0 0 16 16"><path fill="#fff" d="M8.5 2a4.46 4.46 0 0 0-4.5 4.42q0 .95.4 1.8a28 28 0 0 0 3.91 5.7.25.25 0 0 0 .38 0 28 28 0 0 0 3.92-5.7 4 4 0 0 0 .39-1.8 4.46 4.46 0 0 0-4.5-4.42m0 6.71a2.3 2.3 0 0 1-2.34-2.3c0-1.26 1.05-2.29 2.34-2.29s2.34 1.03 2.34 2.3-1.05 2.3-2.34 2.3"/></symbol><use xlink:href="#sprite-pin-icon" width="16" height="16" y="438"/><view id="sprite-pin-icon-view" viewBox="0 438 16 16"/><symbol id="sprite-pine-tree-icon" fill="none" viewBox="0 0 25 25"><path fill="#2D383F" d="m24.6 18.08-4.92-5.61h2.38a.5.5 0 0 0 .4-.8l-3.95-5.19h2a.5.5 0 0 0 .38-.83l-4.82-5.48a.5.5 0 0 0-.75 0l-4.83 5.48a.5.5 0 0 0 .38.83h2.03l-1.22 1.59-3.24-3.7a.5.5 0 0 0-.76 0l-4.12 4.69a.5.5 0 0 0 .38.83h1.58l-3.3 4.32a.5.5 0 0 0 .4.8h1.86l-4.08 4.68a.5.5 0 0 0 .38.83h5.54v3.5c0 .54.44.98.97.98h1.53a.97.97 0 0 0 .98-.97v-3.51h4.16v3.5c0 .55.44.98.97.98h1.53a.97.97 0 0 0 .97-.97v-5.11h6.79a.5.5 0 0 0 .37-.84m-15.8 5.92-1.47.03-.03-3.51h1.5zm5.17-4.48h-12.08l4.1-4.68a.5.5 0 0 0-.39-.84h-1.95l3.3-4.31a.5.5 0 0 0-.4-.8h-1.5l3-3.43 3.01 3.41-2.11 2.8a.5.5 0 0 0 .4.8h2.37l-4.9 5.62a.5.5 0 0 0 .37.83h6.78zm2.47 4.47-1.47.04-.03-5.11h1.5zm.03-6.08h-8.18l4.9-5.61a.5.5 0 0 0-.37-.83h-2.46l3.96-5.18a.5.5 0 0 0-.4-.8h-1.91l3.72-4.23 3.7 4.22h-1.94a.5.5 0 0 0-.4.81l3.94 5.18h-2.44a.5.5 0 0 0-.38.83l4.9 5.61z"/></symbol><use xlink:href="#sprite-pine-tree-icon" width="25" height="25" y="454"/><view id="sprite-pine-tree-icon-view" viewBox="0 454 25 25"/><symbol id="sprite-socials-icon-ok" fill="none" viewBox="0 0 11 16"><path fill="currentColor" d="M5.47 2.42c.97 0 1.76.77 1.76 1.71s-.79 1.7-1.76 1.7-1.76-.76-1.76-1.7.79-1.71 1.76-1.71m0 5.84a4.2 4.2 0 0 0 4.26-4.13c0-2.28-1.91-4.13-4.26-4.13s-4.25 1.85-4.25 4.13a4.2 4.2 0 0 0 4.25 4.13m1.72 3.37a8 8 0 0 0 2.47-1 1.2 1.2 0 0 0 .4-1.66 1.27 1.27 0 0 0-1.73-.38 5.6 5.6 0 0 1-5.73 0 1.26 1.26 0 0 0-1.72.38 1.2 1.2 0 0 0 .4 1.66 8 8 0 0 0 2.47 1l-2.38 2.3a1.2 1.2 0 0 0 0 1.71 1.27 1.27 0 0 0 1.76 0l2.34-2.26 2.34 2.26a1.27 1.27 0 0 0 1.76 0 1.2 1.2 0 0 0 0-1.7z"/></symbol><use xlink:href="#sprite-socials-icon-ok" width="11" height="16" y="479"/><view id="sprite-socials-icon-ok-view" viewBox="0 479 11 16"/><symbol id="sprite-socials-icon-reddit" fill="none" viewBox="0 0 16 15"><path fill="currentColor" d="M9.28 0c-.48 0-.92.24-1.21.6s-.44.78-.56 1.23a10 10 0 0 0-.25 2.26 8 8 0 0 0-3.56 1.1c-.4-.34-.9-.53-1.37-.53-.54.01-1.05.24-1.43.72-.72.92-.64 2.42.2 3.31a5 5 0 0 0-.1.84c0 3.02 3.07 5.47 6.84 5.47s6.82-2.45 6.82-5.47a5 5 0 0 0-.09-.84c.84-.89.93-2.39.2-3.3a1.8 1.8 0 0 0-1.42-.73c-.48 0-.97.2-1.38.54a8 8 0 0 0-3.54-1.11 10 10 0 0 1 .2-1.9q.13-.49.3-.69c.16-.2.17-.19.35-.19.39 0 .44.13.67.44q.16.23.47.53c.22.19.54.35.89.35v-1.32c-.1 0-.12 0-.18-.06q-.1-.1-.3-.37c-.26-.35-.78-.88-1.55-.88m3.76.12c-.9 0-1.63.83-1.63 1.85 0 1.03.73 1.85 1.63 1.85s1.62-.82 1.62-1.85c0-1.02-.72-1.85-1.62-1.85m0 .66c.58 0 1.05.54 1.05 1.2s-.47 1.18-1.05 1.18-1.05-.53-1.05-1.19.47-1.19 1.05-1.19m-5.2 4.34c3.2 0 5.9 2.02 5.9 4.41s-2.7 4.42-5.9 4.42-5.91-2.02-5.91-4.42 2.7-4.41 5.9-4.41m-5.49.6q.24 0 .5.12a5 5 0 0 0-1.36 1.72c-.22-.5-.16-1.14.1-1.48a1 1 0 0 1 .76-.37m10.99 0a1 1 0 0 1 .76.37c.26.34.32.97.1 1.48a5 5 0 0 0-1.35-1.72q.25-.12.49-.13m-7.8 1.65c-.58 0-1.05.53-1.05 1.19s.47 1.19 1.04 1.19 1.05-.53 1.05-1.2c0-.65-.47-1.18-1.05-1.18m4.63 0c-.58 0-1.05.53-1.05 1.19s.47 1.19 1.05 1.19 1.04-.53 1.04-1.2c0-.65-.46-1.18-1.04-1.18m-5.19 4.04c.37.87 1.51 1.71 2.88 1.71s2.52-.84 2.89-1.7c-.67.48-1.73.82-2.9.82s-2.2-.34-2.87-.83"/></symbol><use xlink:href="#sprite-socials-icon-reddit" width="16" height="15" y="495"/><view id="sprite-socials-icon-reddit-view" viewBox="0 495 16 15"/><symbol id="sprite-socials-icon-vk" fill="none" viewBox="0 0 18 9"><path fill="currentColor" d="M17.5 8.03c-.04-.07-.32-.64-1.68-1.82-1.43-1.22-1.23-1.02.48-3.14q1.54-1.93 1.33-2.42c-.13-.32-.9-.24-.9-.24l-2.54.02s-.2-.03-.33.05a1 1 0 0 0-.23.26s-.4 1-.94 1.85c-1.14 1.79-1.6 1.88-1.78 1.77-.43-.26-.32-1.04-.32-1.6 0-1.74.28-2.46-.56-2.65-.28-.06-.48-.1-1.19-.1-.91-.02-1.68 0-2.12.2-.29.13-.51.42-.38.44.17.02.56.1.76.35.26.33.25 1.07.25 1.07s.15 2.05-.35 2.3c-.35.18-.82-.18-1.83-1.8-.52-.84-.91-1.76-.91-1.76s-.08-.17-.21-.26a1 1 0 0 0-.4-.15l-2.42.01s-.37.01-.5.16c-.12.13-.01.4-.01.4s1.9 4.13 4.05 6.21c1.97 1.9 4.21 1.78 4.21 1.78h1.02s.3-.03.46-.19c.14-.14.14-.41.14-.41s-.02-1.26.61-1.45c.62-.19 1.42 1.22 2.27 1.76.64.41 1.13.32 1.13.32l2.27-.03s1.18-.07.62-.93"/></symbol><use xlink:href="#sprite-socials-icon-vk" width="18" height="9" y="510"/><view id="sprite-socials-icon-vk-view" viewBox="0 510 18 9"/><symbol id="sprite-star-icon-empty" fill="none" viewBox="0 0 16 16"><path fill="#fff" fill-rule="evenodd" d="m7.63 10.55 3.19 1.76-.84-3.31 2.68-2.13-3.54-.28-1.49-3.2-1.48 3.2-3.54.28 2.68 2.13-.84 3.3zm-4.71 3.75 1.25-4.92-4.17-3.31 5.49-.43 2.14-4.64 2.15 4.64 5.49.43-4.16 3.31 1.24 4.92-4.71-2.6z" clip-rule="evenodd"/></symbol><use xlink:href="#sprite-star-icon-empty" width="16" height="16" y="519"/><view id="sprite-star-icon-empty-view" viewBox="0 519 16 16"/><symbol id="sprite-star-icon-filled" fill="none" viewBox="0 0 16 16"><path fill="#fff" d="m7.63 11.7 4.72 2.6-1.25-4.92 4.17-3.31-5.5-.43-2.14-4.64-2.14 4.64-5.49.43 4.17 3.31-1.25 4.92z"/></symbol><use xlink:href="#sprite-star-icon-filled" width="16" height="16" y="535"/><view id="sprite-star-icon-filled-view" viewBox="0 535 16 16"/><symbol id="sprite-sun-icon" fill="none" viewBox="0 0 20 20"><path fill="#fff" d="M13.55 6.46a5 5 0 0 0-3.55-1.49 5 5 0 0 0-3.54 1.49c-.9.9-1.49 2.17-1.49 3.54a5.05 5.05 0 0 0 5.03 5.03 5 5 0 0 0 3.55-1.48c.9-.9 1.48-2.18 1.48-3.55a5 5 0 0 0-1.48-3.54m-.96 6.13a3.7 3.7 0 0 1-2.59 1.06 3.7 3.7 0 0 1-2.6-1.06 3.7 3.7 0 0 1-1.05-2.59 3.7 3.7 0 0 1 1.06-2.6 3.7 3.7 0 0 1 2.59-1.05 3.7 3.7 0 0 1 2.6 1.06 3.7 3.7 0 0 1 1.05 2.59 3.7 3.7 0 0 1-1.06 2.6m6.72-3.28h-2.03a.7.7 0 0 0-.7.69.7.7 0 0 0 .7.69h2.03a.7.7 0 0 0 .69-.69.7.7 0 0 0-.69-.69m-9.31 7.28a.7.7 0 0 0-.69.68v2.04a.7.7 0 0 0 .69.69.7.7 0 0 0 .69-.69v-2.03a.7.7 0 0 0-.69-.7m7.06-.47-1.45-1.45c-.24-.27-.69-.27-.95 0a.67.67 0 0 0 0 .95l1.45 1.45a.67.67 0 0 0 .95 0 .67.67 0 0 0 0-.95m-7.06-16.11a.7.7 0 0 0-.69.69v2.04a.7.7 0 0 0 .69.68.7.7 0 0 0 .69-.69v-2.03a.7.7 0 0 0-.69-.69m7.09 2.94a.67.67 0 0 0-.95 0l-1.46 1.45a.67.67 0 0 0 0 .95c.24.27.69.27.95 0l1.46-1.45a.67.67 0 0 0 0-.95m-14.36 6.37h-2.04a.7.7 0 0 0-.69.69c0 .37.3.69.69.69h2.04a.7.7 0 0 0 .68-.69.7.7 0 0 0-.69-.69m2.6 5.35c-.24-.27-.69-.27-.95 0l-1.46 1.45a.67.67 0 0 0 0 .95.67.67 0 0 0 .95 0l1.46-1.45a.67.67 0 0 0 0-.95m0-10.27-1.46-1.45a.67.67 0 0 0-.95 0 .67.67 0 0 0 0 .95l1.46 1.45a.67.67 0 0 0 .95 0 .67.67 0 0 0 0-.95"/></symbol><use xlink:href="#sprite-sun-icon" width="20" height="20" y="551"/><view id="sprite-sun-icon-view" viewBox="0 551 20 20"/></svg>